<?xml version="1.0" encoding="UTF-8" standalone="no"?>
<!-- Created with Inkscape (http://www.inkscape.org/) -->

<svg
   xmlns:dc="http://purl.org/dc/elements/1.1/"
   xmlns:cc="http://creativecommons.org/ns#"
   xmlns:rdf="http://www.w3.org/1999/02/22-rdf-syntax-ns#"
   xmlns:svg="http://www.w3.org/2000/svg"
   xmlns="http://www.w3.org/2000/svg"
   xmlns:sodipodi="http://sodipodi.sourceforge.net/DTD/sodipodi-0.dtd"
   xmlns:inkscape="http://www.inkscape.org/namespaces/inkscape"
   width="210mm"
   height="297mm"
   viewBox="0 0 210 297"
   version="1.1"
   id="svg8"
   inkscape:version="0.92.2 5c3e80d, 2017-08-06"
   sodipodi:docname="drawing.svg">
  <defs
     id="defs2" />
  <sodipodi:namedview
     id="base"
     pagecolor="#ffffff"
     bordercolor="#666666"
     borderopacity="1.0"
     inkscape:pageopacity="0.0"
     inkscape:pageshadow="2"
     inkscape:zoom="0.35"
     inkscape:cx="-114.28571"
     inkscape:cy="560"
     inkscape:document-units="mm"
     inkscape:current-layer="layer1"
     showgrid="false"
     inkscape:window-width="1440"
     inkscape:window-height="800"
     inkscape:window-x="0"
     inkscape:window-y="1"
     inkscape:window-maximized="1" />
  <metadata
     id="metadata5">
    <rdf:RDF>
      <cc:Work
         rdf:about="">
        <dc:format>image/svg+xml</dc:format>
        <dc:type
           rdf:resource="http://purl.org/dc/dcmitype/StillImage" />
        <dc:title></dc:title>
      </cc:Work>
    </rdf:RDF>
  </metadata>
  <g
     inkscape:label="Layer 1"
     inkscape:groupmode="layer"
     id="layer1">
    <rect
       style="fill:#afc6e9;fill-opacity:1;stroke-width:0.26458332"
       id="rect10"
       width="281.97021"
       height="170.08928"
       x="-278.94644"
       y="86.089287" />
    <path
       sodipodi:type="star"
       style="fill:#1a1a1a;fill-opacity:1;stroke-width:0.26458332"
       id="path821"
       sodipodi:sides="15"
       sodipodi:cx="-223.00596"
       sodipodi:cy="9.7380948"
       sodipodi:r1="32.637539"
       sodipodi:r2="18.603395"
       sodipodi:arg1="1.8045395"
       sodipodi:arg2="2.013979"
       inkscape:flatsided="false"
       inkscape:rounded="2.01"
       inkscape:randomized="0"
       d="m -230.56549,41.488095 c -29.23174,-6.959938 26.72798,-2.058383 -0.41793,-14.943852 -27.1459,-12.885469 12.03126,27.372027 -11.8424,9.124185 -23.87367,-18.247842 25.25444,8.990823 5.69641,-13.821874 -19.55802,-22.81269696 -0.1421,29.899144 -14.52971,3.518617 -14.38762,-26.3805276 19.41418,18.485434 10.8258,-10.309968 -8.58839,-28.795403 -12.2909,27.256427 -14.70471,-2.695353 -2.41381,-29.95178 10.21704,24.783746 14.0833,-5.0153751 3.86626,-29.7991219 -22.31448,19.9008271 -12.33712,-8.4432712 9.97736,-28.3440977 -0.74673,26.7967233 14.90567,1.14642195 15.6524,-25.65030165 -28.47969,9.10419265 -7.83633,-12.73127165 20.64335,-21.835463 -11.58138,24.176304 13.15072,7.1099925 24.73209,-17.0663115 -29.7205,-3.2666392 -1.98058,-14.8179185 27.73993,-11.55128 -20.4135,17.3755806 9.12189,11.8441796 29.53539,-5.5314006 -25.82237,-15.0726396 4.21765,-14.3424136 30.04001,0.730226 -25.71595,7.570463 3.51579,14.5304015 29.23175,6.9599389 -17.45931,-24.2724435 9.6866,-11.3869745 27.14591,12.8854681 -26.57187,-3.543658 -2.69821,14.7041844 23.87367,18.2478426 -6.07738,-29.2753214 13.48065,-6.4626244 19.55803,22.812696 -22.83328,-14.045047 -8.44567,12.33548049 14.38761,26.38052751 6.35538,-29.21623049 14.94377,-0.42082794 8.58839,28.79540245 -15.1466,-22.11791955 -12.73279,7.83386005 2.41381,29.9517804 17.68924,-24.1053876 13.82298,5.6937334 -3.86626,29.799122 -4.84094,-26.366403 -14.8183,1.977694 -9.97736,28.344098 25.96447,-14.8265043 10.31207,10.823797 -15.6524,25.650302 6.30176,-26.05589672 -14.3416,-4.220433 -20.64335,21.835464 29.75021,-2.983984 5.01811,14.082328 -24.73209,17.066311 16.35484,-21.24009 -11.38509,-9.68881 -27.73993,11.551279 28.39186,9.374494 -1.14353,14.905896 -29.53539,5.531401 23.58001,-12.751677 -6.46,-13.481903 -30.04002,-0.730226 22.1243,20.112038 -7.10744,13.152099 z"
       inkscape:transform-center-x="-3.6731635"
       inkscape:transform-center-y="4.5150355"
       inkscape:export-xdpi="96"
       inkscape:export-ydpi="96" />
  </g>
</svg>
